<svg id="visual" viewBox="0 0 960 300" width="960" height="300" xmlns="http://www.w3.org/2000/svg" xmlns:xlink="http://www.w3.org/1999/xlink" version="1.1"><path d="M0 31L40 29C80 27 160 23 240 21C320 19 400 19 480 20C560 21 640 23 720 24C800 25 880 25 920 25L960 25L960 0L920 0C880 0 800 0 720 0C640 0 560 0 480 0C400 0 320 0 240 0C160 0 80 0 40 0L0 0Z" fill="#6198ff"></path><path d="M0 94L40 93C80 92 160 90 240 95C320 100 400 112 480 115C560 118 640 112 720 106.5C800 101 880 96 920 93.5L960 91L960 23L920 23C880 23 800 23 720 22C640 21 560 19 480 18C400 17 320 17 240 19C160 21 80 25 40 27L0 29Z" fill="#4988ff"></path><path d="M0 145L40 141.5C80 138 160 131 240 133.5C320 136 400 148 480 150.5C560 153 640 146 720 137.5C800 129 880 119 920 114L960 109L960 89L920 91.5C880 94 800 99 720 104.5C640 110 560 116 480 113C400 110 320 98 240 93C160 88 80 90 40 91L0 92Z" fill="#2d77ff"></path><path d="M0 193L40 186C80 179 160 165 240 164.5C320 164 400 177 480 184.5C560 192 640 194 720 187C800 180 880 164 920 156L960 148L960 107L920 112C880 117 800 127 720 135.5C640 144 560 151 480 148.5C400 146 320 134 240 131.5C160 129 80 136 40 139.5L0 143Z" fill="#0066ff"></path><path d="M0 208L40 203C80 198 160 188 240 189.5C320 191 400 204 480 212.5C560 221 640 225 720 218.5C800 212 880 195 920 186.5L960 178L960 146L920 154C880 162 800 178 720 185C640 192 560 190 480 182.5C400 175 320 162 240 162.5C160 163 80 177 40 184L0 191Z" fill="#005de8"></path><path d="M0 220L40 215C80 210 160 200 240 206C320 212 400 234 480 245C560 256 640 256 720 247.5C800 239 880 222 920 213.5L960 205L960 176L920 184.5C880 193 800 210 720 216.5C640 223 560 219 480 210.5C400 202 320 189 240 187.5C160 186 80 196 40 201L0 206Z" fill="#0055d1"></path><path d="M0 301L40 301C80 301 160 301 240 301C320 301 400 301 480 301C560 301 640 301 720 301C800 301 880 301 920 301L960 301L960 203L920 211.5C880 220 800 237 720 245.5C640 254 560 254 480 243C400 232 320 210 240 204C160 198 80 208 40 213L0 218Z" fill="#004cbb"></path></svg>