<svg id="visual" viewBox="0 0 960 300" width="960" height="300" xmlns="http://www.w3.org/2000/svg" xmlns:xlink="http://www.w3.org/1999/xlink" version="1.1"><path d="M0 31L14.5 39C29 47 58 63 87.2 71.5C116.3 80 145.7 81 174.8 73.5C204 66 233 50 262 42C291 34 320 34 349 38.5C378 43 407 52 436.2 54C465.3 56 494.7 51 523.8 47.5C553 44 582 42 611 42.5C640 43 669 46 698 47.5C727 49 756 49 785.2 50C814.3 51 843.7 53 872.8 58.5C902 64 931 73 945.5 77.5L960 82L960 0L945.5 0C931 0 902 0 872.8 0C843.7 0 814.3 0 785.2 0C756 0 727 0 698 0C669 0 640 0 611 0C582 0 553 0 523.8 0C494.7 0 465.3 0 436.2 0C407 0 378 0 349 0C320 0 291 0 262 0C233 0 204 0 174.8 0C145.7 0 116.3 0 87.2 0C58 0 29 0 14.5 0L0 0Z" fill="#004cbb"></path><path d="M0 70L14.5 76.5C29 83 58 96 87.2 103C116.3 110 145.7 111 174.8 107C204 103 233 94 262 89.5C291 85 320 85 349 87C378 89 407 93 436.2 91.5C465.3 90 494.7 83 523.8 80.5C553 78 582 80 611 81C640 82 669 82 698 84C727 86 756 90 785.2 89.5C814.3 89 843.7 84 872.8 89.5C902 95 931 111 945.5 119L960 127L960 80L945.5 75.5C931 71 902 62 872.8 56.5C843.7 51 814.3 49 785.2 48C756 47 727 47 698 45.5C669 44 640 41 611 40.5C582 40 553 42 523.8 45.5C494.7 49 465.3 54 436.2 52C407 50 378 41 349 36.5C320 32 291 32 262 40C233 48 204 64 174.8 71.5C145.7 79 116.3 78 87.2 69.5C58 61 29 45 14.5 37L0 29Z" fill="#245ecc"></path><path d="M0 142L14.5 155C29 168 58 194 87.2 200C116.3 206 145.7 192 174.8 187C204 182 233 186 262 194.5C291 203 320 216 349 209.5C378 203 407 177 436.2 173C465.3 169 494.7 187 523.8 186.5C553 186 582 167 611 164.5C640 162 669 176 698 175C727 174 756 158 785.2 159.5C814.3 161 843.7 180 872.8 196.5C902 213 931 227 945.5 234L960 241L960 125L945.5 117C931 109 902 93 872.8 87.5C843.7 82 814.3 87 785.2 87.5C756 88 727 84 698 82C669 80 640 80 611 79C582 78 553 76 523.8 78.5C494.7 81 465.3 88 436.2 89.5C407 91 378 87 349 85C320 83 291 83 262 87.5C233 92 204 101 174.8 105C145.7 109 116.3 108 87.2 101C58 94 29 81 14.5 74.5L0 68Z" fill="#3a71dd"></path><path d="M0 190L14.5 201.5C29 213 58 236 87.2 240C116.3 244 145.7 229 174.8 224C204 219 233 224 262 230C291 236 320 243 349 236C378 229 407 208 436.2 204C465.3 200 494.7 213 523.8 214.5C553 216 582 206 611 208C640 210 669 224 698 223C727 222 756 206 785.2 206C814.3 206 843.7 222 872.8 234.5C902 247 931 256 945.5 260.5L960 265L960 239L945.5 232C931 225 902 211 872.8 194.5C843.7 178 814.3 159 785.2 157.5C756 156 727 172 698 173C669 174 640 160 611 162.5C582 165 553 184 523.8 184.5C494.7 185 465.3 167 436.2 171C407 175 378 201 349 207.5C320 214 291 201 262 192.5C233 184 204 180 174.8 185C145.7 190 116.3 204 87.2 198C58 192 29 166 14.5 153L0 140Z" fill="#4d84ee"></path><path d="M0 301L14.5 301C29 301 58 301 87.2 301C116.3 301 145.7 301 174.8 301C204 301 233 301 262 301C291 301 320 301 349 301C378 301 407 301 436.2 301C465.3 301 494.7 301 523.8 301C553 301 582 301 611 301C640 301 669 301 698 301C727 301 756 301 785.2 301C814.3 301 843.7 301 872.8 301C902 301 931 301 945.5 301L960 301L960 263L945.5 258.5C931 254 902 245 872.8 232.5C843.7 220 814.3 204 785.2 204C756 204 727 220 698 221C669 222 640 208 611 206C582 204 553 214 523.8 212.5C494.7 211 465.3 198 436.2 202C407 206 378 227 349 234C320 241 291 234 262 228C233 222 204 217 174.8 222C145.7 227 116.3 242 87.2 238C58 234 29 211 14.5 199.5L0 188Z" fill="#6098ff"></path></svg>