<svg id="visual" viewBox="0 0 960 300" width="960" height="300" xmlns="http://www.w3.org/2000/svg" xmlns:xlink="http://www.w3.org/1999/xlink" version="1.1"><path d="M0 64L14.5 65.5C29 67 58 70 87.2 72C116.3 74 145.7 75 174.8 71.5C204 68 233 60 262 60C291 60 320 68 349 65.5C378 63 407 50 436.2 44.5C465.3 39 494.7 41 523.8 42.5C553 44 582 45 611 50.5C640 56 669 66 698 65.5C727 65 756 54 785.2 50C814.3 46 843.7 49 872.8 53C902 57 931 62 945.5 64.5L960 67L960 0L945.5 0C931 0 902 0 872.8 0C843.7 0 814.3 0 785.2 0C756 0 727 0 698 0C669 0 640 0 611 0C582 0 553 0 523.8 0C494.7 0 465.3 0 436.2 0C407 0 378 0 349 0C320 0 291 0 262 0C233 0 204 0 174.8 0C145.7 0 116.3 0 87.2 0C58 0 29 0 14.5 0L0 0Z" fill="#6198ff"></path><path d="M0 100L14.5 101C29 102 58 104 87.2 107.5C116.3 111 145.7 116 174.8 111.5C204 107 233 93 262 94C291 95 320 111 349 108.5C378 106 407 85 436.2 78.5C465.3 72 494.7 80 523.8 85.5C553 91 582 94 611 95C640 96 669 95 698 92.5C727 90 756 86 785.2 86C814.3 86 843.7 90 872.8 96C902 102 931 110 945.5 114L960 118L960 65L945.5 62.5C931 60 902 55 872.8 51C843.7 47 814.3 44 785.2 48C756 52 727 63 698 63.5C669 64 640 54 611 48.5C582 43 553 42 523.8 40.5C494.7 39 465.3 37 436.2 42.5C407 48 378 61 349 63.5C320 66 291 58 262 58C233 58 204 66 174.8 69.5C145.7 73 116.3 72 87.2 70C58 68 29 65 14.5 63.5L0 62Z" fill="#3c80ff"></path><path d="M0 151L14.5 148.5C29 146 58 141 87.2 139.5C116.3 138 145.7 140 174.8 139.5C204 139 233 136 262 140C291 144 320 155 349 149.5C378 144 407 122 436.2 116.5C465.3 111 494.7 122 523.8 128.5C553 135 582 137 611 137.5C640 138 669 137 698 137C727 137 756 138 785.2 139C814.3 140 843.7 141 872.8 144.5C902 148 931 154 945.5 157L960 160L960 116L945.5 112C931 108 902 100 872.8 94C843.7 88 814.3 84 785.2 84C756 84 727 88 698 90.5C669 93 640 94 611 93C582 92 553 89 523.8 83.5C494.7 78 465.3 70 436.2 76.5C407 83 378 104 349 106.5C320 109 291 93 262 92C233 91 204 105 174.8 109.5C145.7 114 116.3 109 87.2 105.5C58 102 29 100 14.5 99L0 98Z" fill="#0066ff"></path><path d="M0 235L14.5 238C29 241 58 247 87.2 245C116.3 243 145.7 233 174.8 225C204 217 233 211 262 209C291 207 320 209 349 210.5C378 212 407 213 436.2 220C465.3 227 494.7 240 523.8 234C553 228 582 203 611 193.5C640 184 669 190 698 203C727 216 756 236 785.2 238.5C814.3 241 843.7 226 872.8 216C902 206 931 201 945.5 198.5L960 196L960 158L945.5 155C931 152 902 146 872.8 142.5C843.7 139 814.3 138 785.2 137C756 136 727 135 698 135C669 135 640 136 611 135.5C582 135 553 133 523.8 126.5C494.7 120 465.3 109 436.2 114.5C407 120 378 142 349 147.5C320 153 291 142 262 138C233 134 204 137 174.8 137.5C145.7 138 116.3 136 87.2 137.5C58 139 29 144 14.5 146.5L0 149Z" fill="#0059dd"></path><path d="M0 301L14.5 301C29 301 58 301 87.2 301C116.3 301 145.7 301 174.8 301C204 301 233 301 262 301C291 301 320 301 349 301C378 301 407 301 436.2 301C465.3 301 494.7 301 523.8 301C553 301 582 301 611 301C640 301 669 301 698 301C727 301 756 301 785.2 301C814.3 301 843.7 301 872.8 301C902 301 931 301 945.5 301L960 301L960 194L945.5 196.5C931 199 902 204 872.8 214C843.7 224 814.3 239 785.2 236.5C756 234 727 214 698 201C669 188 640 182 611 191.5C582 201 553 226 523.8 232C494.7 238 465.3 225 436.2 218C407 211 378 210 349 208.5C320 207 291 205 262 207C233 209 204 215 174.8 223C145.7 231 116.3 241 87.2 243C58 245 29 239 14.5 236L0 233Z" fill="#004cbb"></path></svg>